<?xml version="1.0" encoding="UTF-8" standalone="no"?>
<svg
   width="72px"
   height="72px"
   viewBox="0 0 72 72"
   id="emoji"
   version="1.1"
   sodipodi:docname="logo.svg"
   inkscape:version="1.1.1 (eb90963e84, 2021-10-02)"
   xmlns:inkscape="http://www.inkscape.org/namespaces/inkscape"
   xmlns:sodipodi="http://sodipodi.sourceforge.net/DTD/sodipodi-0.dtd"
   xmlns="http://www.w3.org/2000/svg"
   xmlns:svg="http://www.w3.org/2000/svg">
  <defs
     id="defs47" />
  <sodipodi:namedview
     id="namedview45"
     pagecolor="#ffffff"
     bordercolor="#666666"
     borderopacity="1.0"
     inkscape:pageshadow="2"
     inkscape:pageopacity="0.0"
     inkscape:pagecheckerboard="0"
     showgrid="false"
     inkscape:zoom="7.8583144"
     inkscape:cx="23.987332"
     inkscape:cy="44.984202"
     inkscape:window-width="1868"
     inkscape:window-height="1016"
     inkscape:window-x="52"
     inkscape:window-y="27"
     inkscape:window-maximized="1"
     inkscape:current-layer="emoji" />
  <g
     id="color">
    <g
       id="g6">
      <rect
         x="17"
         y="5"
         width="38"
         height="62"
         fill="#d22f27"
         id="rect2" />
      <circle
         cx="36"
         cy="27"
         r="10"
         fill="#f1b31c"
         id="circle4" />
    </g>
  </g>
  <g
     id="g37">
    <circle
       cx="36"
       cy="27"
       r="10"
       fill="none"
       stroke="#000000"
       stroke-linecap="round"
       stroke-miterlimit="10"
       stroke-width="2"
       id="circle29" />
    <g
       id="g35">
      <path
         fill="none"
         stroke="#000000"
         stroke-linecap="round"
         stroke-miterlimit="10"
         stroke-width="2"
         d="m 55,18 a 25.4,25.4 0 0 1 -9.2886,6.6522"
         id="path31" />
      <path
         fill="none"
         stroke="#000000"
         stroke-linecap="round"
         stroke-miterlimit="10"
         stroke-width="2"
         d="M 26.2886,24.6522 A 25.4,25.4 0 0 1 17,18"
         id="path33" />
    </g>
  </g>
  <rect
     x="17"
     y="5"
     width="38"
     height="62"
     fill="none"
     stroke="#000000"
     stroke-linejoin="round"
     stroke-width="2"
     id="rect39" />
  <path
     style="fill:#ffffff;stroke:#000000;stroke-width:0.75;stroke-linecap:round;stroke-linejoin:round;stroke-miterlimit:4;stroke-dasharray:none;stroke-opacity:1"
     inkscape:connector-curvature="0"
     id="path8-3"
     d="M 40.696052,26.114282 C 40.90094,24.744879 39.85817,24.008723 38.432321,23.51763 l 0.462524,-1.855028 -1.129292,-0.281406 -0.450303,1.806144 c -0.296876,-0.07397 -0.601795,-0.143758 -0.904784,-0.212905 l 0.453519,-1.818041 -1.128649,-0.281402 -0.462847,1.854379 c -0.245735,-0.05596 -0.486968,-0.111275 -0.721125,-0.169486 l 0.0013,-0.0057 -1.557402,-0.388822 -0.300415,1.206023 c 0,0 0.837883,0.192001 0.820192,0.203899 0.457378,0.11417 0.540041,0.416803 0.52621,0.65672 l -0.526853,2.113281 c 0.03152,0.008 0.07237,0.01962 0.117401,0.03762 -0.03764,-0.0093 -0.07784,-0.01962 -0.119331,-0.02959 l -0.738494,2.960386 c -0.05597,0.138936 -0.197812,0.347341 -0.517526,0.268223 0.01126,0.0164 -0.820836,-0.204865 -0.820836,-0.204865 l -0.560625,1.292539 1.469592,0.366312 c 0.273397,0.06851 0.541327,0.140222 0.805075,0.207752 l -0.467349,1.876242 1.128006,0.281417 0.462846,-1.856321 c 0.308134,0.08364 0.607264,0.160809 0.89996,0.233492 l -0.461238,1.847622 1.129293,0.281408 0.467348,-1.872712 c 1.925685,0.36439 3.373727,0.217409 3.98324,-1.52409 0.491152,-1.402205 -0.02444,-2.211041 -1.037623,-2.738477 0.737853,-0.17013 1.293653,-0.655434 1.44193,-1.657882 z m -2.580228,3.617754 c -0.348986,1.402208 -2.710174,0.644175 -3.475686,0.454096 l 0.620129,-2.485689 c 0.765513,0.191036 3.220302,0.569245 2.855557,2.031593 z m 0.349304,-3.638016 c -0.318427,1.275491 -2.283672,0.627453 -2.921171,0.468581 l 0.562235,-2.254464 c 0.637497,0.158876 2.690553,0.455396 2.358936,1.785883 z" />
</svg>
